#!OML:ASF F:\VICON\USERDATA\INSTALL\rory3\rory3.ASF
:FULLY-SPECIFIED
:DEGREES
107
root 3.88833 17.5459 3.7953 20.523 -12.7328 1.53652
lowerback -10.5322 3.17266 3.12298
upperback -14.08 3.98523 -0.763075
thorax -8.89653 1.61663 -2.43082
lowerneck -3.68885 17.8256 12.9875
upperneck 12.8068 22.4021 4.93352
head 5.35531 11.8367 1.10248
rclavicle -2.38542e-015 -1.47101e-014
rhumerus 1.70702 -20.732 18.5815
rradius 121.883
rwrist -55.9486
rhand -6.07659 -47.2182
rfingers 7.12502
rthumb 19.7587 -76.2339
lclavicle -2.38542e-015 -1.47101e-014
lhumerus 26.1499 19.8834 -23.8063
lradius 33.9363
lwrist 49.9298
lhand -25.0819 -20.9146
lfingers 7.12502
lthumb 1.43247 9.06036
rfemur -5.04787 3.19301 -5.80608
rtibia 7.48294
rfoot -42.9903 -10.8117
rtoes 54.525
lfemur -21.5305 1.50589 -30.7859
ltibia 12.9891
lfoot -11.0874 8.86102
ltoes 8.83692
108
root 3.89456 17.543 3.82026 20.6564 -12.6887 1.32477
lowerback -11.0604 3.2263 3.44287
upperback -13.9402 4.01733 -0.722195
thorax -8.42273 1.61851 -2.52642
lowerneck -3.88573 17.86 12.8569
upperneck 12.9244 22.4149 5.01903
head 5.39993 11.8466 1.16605
rclavicle 1.91827e-014 2.38542e-015
rhumerus 1.74273 -20.9188 18.5236
rradius 121.862
rwrist -56.027
rhand -5.73055 -47.2553
rfingers 7.12502
rthumb 20.0914 -76.2364
lclavicle 1.91827e-014 2.38542e-015
lhumerus 25.9803 19.9149 -23.895
lradius 34.0061
lwrist 50.0887
lhand -25.9216 -21.1167
lfingers 7.12502
lthumb 0.621488 8.86211
rfemur -5.04557 3.1811 -5.6269
rtibia 7.45119
rfoot -42.897 -11.2746
rtoes 54.4548
lfemur -21.519 1.62986 -30.6438
ltibia 13.0191
lfoot -11.2587 8.75576
ltoes 9.08909
109
root 3.88901 17.5485 3.79432 20.5467 -12.7764 1.3933
lowerback -10.6416 3.21991 3.23586
upperback -13.965 4.03821 -0.74149
thorax -8.69367 1.64043 -2.45708
lowerneck -3.55391 17.8085 12.8556
upperneck 12.5519 22.4283 4.85413
head 5.24668 11.8304 1.06503
rclavicle 2.78299e-015 7.95139e-015
rhumerus 1.68394 -20.8177 18.51
rradius 121.888
rwrist -56.1101
rhand -5.99619 -47.244
rfingers 7.12502
rthumb 19.836 -76.2518
lclavicle 2.78299e-015 7.95139e-015
lhumerus 26.0952 20.1017 -23.7034
lradius 33.9591
lwrist 49.8179
lhand -26.4028 -21.1203
lfingers 7.12502
lthumb 0.156681 8.85936
rfemur -5.05905 3.28119 -5.65851
rtibia 7.47762
rfoot -43.2488 -10.0028
rtoes 54.8138
lfemur -21.5614 1.56627 -30.646
ltibia 13.019
lfoot -11.1118 8.85878
ltoes 10.0323
110
root 3.89262 17.5464 3.80294 20.559 -12.7854 1.38372
lowerback -10.779 3.28543 3.30203
upperback -13.9677 4.11318 -0.805029
thorax -8.60672 1.67047 -2.55025
lowerneck -3.28086 17.7101 12.9109
upperneck 12.3855 22.3529 4.74075
head 5.16712 11.7841 0.984581
rclavicle 6.49032e-014 2.18663e-014
rhumerus 1.58506 -20.6438 18.5267
rradius 121.92
rwrist -56.1448
rhand -6.69843 -47.3235
rfingers 7.12502
rthumb 19.1608 -76.3996
lclavicle 6.49032e-014 2.18663e-014
lhumerus 26.2213 20.0281 -23.6235
lradius 34.0717
lwrist 50.0493
lhand -26.8562 -20.7361
lfingers 7.12502
lthumb -0.281163 9.24347
rfemur -4.8999 3.28352 -5.69138
rtibia 7.28937
rfoot -43.4872 -9.31719
rtoes 54.991
lfemur -21.5935 1.57436 -30.6636
ltibia 13.1163
lfoot -11.1908 8.87161
ltoes 10.6419
111
root 3.89596 17.5464 3.80145 20.5461 -12.8156 1.44698
lowerback -10.8771 3.31842 3.25782
upperback -13.9087 4.15152 -0.856546
thorax -8.47957 1.6951 -2.57064
lowerneck -3.47919 17.6841 12.8467
upperneck 12.5491 22.2791 4.81288
head 5.23321 11.7556 1.03356
rclavicle 2.18663e-014 -1.59028e-014
rhumerus 1.55141 -20.7584 18.4867
rradius 121.947
rwrist -56.2463
rhand -7.07066 -47.4681
rfingers 7.12502
rthumb 18.8029 -76.5793
lclavicle 2.18663e-014 -1.59028e-014
lhumerus 26.4464 20.4172 -23.2269
lradius 34.0412
lwrist 50.0551
lhand -27.5449 -20.4872
lfingers 7.12502
lthumb -0.946366 9.49042
rfemur -4.90553 3.28697 -5.77864
rtibia 7.19805
rfoot -43.5176 -9.84761
rtoes 54.8275
lfemur -21.6383 1.58468 -30.7492
ltibia 13.1847
lfoot -11.2319 8.87853
ltoes 10.3868
112
root 3.90029 17.5456 3.80305 20.5209 -12.8023 1.36417
lowerback -10.9297 3.34168 3.38973
upperback -13.8176 4.17204 -0.867676
thorax -8.33538 1.69759 -2.64731
lowerneck -3.7664 17.7106 12.7843
upperneck 12.7313 22.2485 4.98081
head 5.31011 11.7538 1.12227
rclavicle -2.79292e-014 -2.78299e-014
rhumerus 1.56768 -20.8673 18.3528
rradius 121.985
rwrist -56.3158
rhand -7.04321 -47.4302
rfingers 7.12502
rthumb 18.8293 -76.5388
lclavicle -2.79292e-014 -2.78299e-014
lhumerus 26.995 21.4913 -22.2554
lradius 33.656
lwrist 49.1242
lhand -27.0872 -20.5129
lfingers 7.12502
lthumb -0.504325 9.46629
rfemur -4.71447 3.31996 -5.70211
rtibia 6.85732
rfoot -43.5886 -10.235
rtoes 54.6997
lfemur -21.664 1.57014 -30.6626
ltibia 13.3578
lfoot -11.3764 8.88943
ltoes 9.67805
113
root 3.90419 17.5426 3.81208 20.5453 -12.6965 1.09747
lowerback -10.9812 3.37382 3.73207
upperback -13.797 4.19661 -0.842485
thorax -8.26445 1.68218 -2.80451
lowerneck -3.54464 17.649 12.937
upperneck 12.6292 22.1986 4.90071
head 5.26718 11.7272 1.05343
rclavicle 5.47652e-014 1.39149e-014
rhumerus 1.604 -20.8463 18.1728
rradius 121.984
rwrist -56.3307
rhand -6.68153 -47.288
rfingers 7.12502
rthumb 19.1771 -76.3626
lclavicle 5.47652e-014 1.39149e-014
lhumerus 27.4255 22.0657 -21.6061
lradius 33.4948
lwrist 48.7981
lhand -26.6859 -20.1848
lfingers 7.12502
lthumb -0.116753 9.79496
rfemur -4.49149 3.32959 -5.40672
rtibia 6.65606
rfoot -43.8471 -9.34367
rtoes 54.8994
lfemur -21.6403 1.56825 -30.3749
ltibia 13.5091
lfoot -11.5465 8.8658
ltoes 8.85143
114
root 3.90575 17.5422 3.80852 20.562 -12.6309 1.03079
lowerback -10.8906 3.36205 3.80896
upperback -13.8407 4.18281 -0.841671
thorax -8.36232 1.66493 -2.85412
lowerneck -3.06284 17.5231 13.1528
upperneck 12.3889 22.1319 4.58864
head 5.17148 11.6774 0.880065
rclavicle -1.87852e-014 5.56597e-015
rhumerus 1.67554 -20.768 18.0292
rradius 121.964
rwrist -56.3931
rhand -6.82442 -47.2805
rfingers 7.12502
rthumb 19.0397 -76.3686
lclavicle -1.87852e-014 5.56597e-015
lhumerus 27.4792 21.9925 -21.5449
lradius 33.6696
lwrist 49.3973
lhand -27.9711 -19.7528
lfingers 7.12502
lthumb -1.35803 10.2226
rfemur -4.22234 3.29467 -5.31988
rtibia 6.25719
rfoot -44.2259 -8.22368
rtoes 55.2684
lfemur -21.752 1.58602 -30.3047
ltibia 13.7221
lfoot -11.6603 8.81631
ltoes 9.90949
115
root 3.9066 17.5452 3.7993 20.5873 -12.6146 1.04332
lowerback -10.7973 3.3422 3.76112
upperback -13.8545 4.16404 -0.840163
thorax -8.43445 1.65791 -2.83316
lowerneck -2.94115 17.4753 13.1792
upperneck 12.3717 22.0969 4.49417
head 5.15924 11.6558 0.835885
rclavicle 3.926e-014 2.14687e-014
rhumerus 1.72974 -20.7534 18.0135
rradius 121.985
rwrist -56.4605
rhand -6.9357 -47.2927
rfingers 7.12502
rthumb 18.9327 -76.3912
lclavicle 3.926e-014 2.14687e-014
lhumerus 27.4357 21.9125 -21.5621
lradius 33.8288
lwrist 50.0903
lhand -29.4272 -19.7854
lfingers 7.12502
lthumb -2.76429 10.1764
rfemur -3.92976 3.26528 -5.33155
rtibia 5.65747
rfoot -44.522 -8.11914
rtoes 55.4207
lfemur -21.9436 1.62651 -30.3284
ltibia 13.963
lfoot -11.7299 8.75208
ltoes 11.1546
116
root 3.9095 17.5441 3.80773 20.6511 -12.6269 0.960002
lowerback -10.9703 3.37011 3.85369
upperback -13.8088 4.18708 -0.834553
thorax -8.27892 1.66624 -2.86492
lowerneck -3.14638 17.5211 13.0509
upperneck 12.5416 22.1062 4.70519
head 5.20831 11.6731 0.936809
rclavicle 6.72886e-014 2.42517e-014
rhumerus 1.82082 -20.8233 17.8912
rradius 121.991
rwrist -56.4785
rhand -6.44605 -47.3934
rfingers 7.12502
rthumb 19.4035 -76.4453
lclavicle 6.72886e-014 2.42517e-014
lhumerus 27.1912 21.5706 -21.9039
lradius 34.109
lwrist 51.1277
lhand -29.7334 -19.8407
lfingers 7.12502
lthumb -3.06003 10.1171
rfemur -3.73944 3.28019 -5.28831
rtibia 5.31091
rfoot -44.6543 -8.4729
rtoes 55.4439
lfemur -22.0452 1.69814 -30.2862
ltibia 14.1091
lfoot -11.8141 8.73466
ltoes 10.9368
117
root 3.91469 17.5379 3.82757 20.712 -12.664 0.895224
lowerback -11.2946 3.40975 3.96922
upperback -13.7364 4.21422 -0.844032
thorax -8.00634 1.67735 -2.91483
lowerneck -3.3122 17.5577 13.0322
upperneck 12.7163 22.1163 4.78571
head 5.27984 11.688 0.988899
rclavicle -9.83984e-015 -1.59028e-014
rhumerus 1.99172 -20.9059 17.5874
rradius 121.952
rwrist -56.522
rhand -6.35565 -47.6321
rfingers 7.12502
rthumb 19.4904 -76.6752
lclavicle -9.83984e-015 -1.59028e-014
lhumerus 26.6871 20.7971 -22.6789
lradius 34.5756
lwrist 52.461
lhand -29.5083 -19.7303
lfingers 7.12502
lthumb -2.84258 10.2305
rfemur -3.66665 3.30766 -5.2915
rtibia 5.28681
rfoot -44.7334 -8.12826
rtoes 55.4235
lfemur -22.0443 1.75288 -30.2869
ltibia 14.1603
lfoot -11.8954 8.77727
ltoes 10.6899
118
root 3.91506 17.5365 3.82509 20.7007 -12.6785 0.916538
lowerback -11.2778 3.40626 3.90495
upperback -13.6997 4.21278 -0.858812
thorax -7.9758 1.68317 -2.89454
lowerneck -3.34518 17.5363 13.1161
upperneck 12.7812 22.0933 4.62728
head 5.33258 11.6733 0.943471
rclavicle -1.32192e-014 1.07344e-014
rhumerus 2.02275 -21.0138 17.469
rradius 121.979
rwrist -56.6648
rhand -6.58765 -47.6572
rfingers 7.12502
rthumb 19.2674 -76.7227
lclavicle -1.32192e-014 1.07344e-014
lhumerus 26.5084 20.5716 -22.9539
lradius 34.7313
lwrist 52.9239
lhand -29.1988 -19.9824
lfingers 7.12502
lthumb -2.54375 9.98218
rfemur -3.68969 3.31742 -5.30155
rtibia 5.29207
rfoot -44.8477 -7.80573
rtoes 55.3182
lfemur -22.0513 1.73007 -30.3032
ltibia 14.1886
lfoot -11.8847 8.80917
ltoes 10.9586
